<?xml version="1.0" encoding="utf-8"?>
<!-- Generator: Adobe Illustrator 18.1.1, SVG Export Plug-In . SVG Version: 6.00 Build 0)  -->
<svg version="1.1" id="Layer_1" xmlns="http://www.w3.org/2000/svg" xmlns:xlink="http://www.w3.org/1999/xlink" x="0px" y="0px"
	 width="24px" height="24px" viewBox="0 0 24 24" enable-background="new 0 0 24 24" xml:space="preserve">
<g>
	<path fill="#FFFFFF" d="M4.607,20C3.169,20,2,18.838,2,17.41V6.95l0.005,0.005C2.001,6.906,2,6.858,2,6.81C2,5.155,3.072,4,4.607,4
		h14.785C20.83,4,22,5.162,22,6.591c0,0.128-0.008,0.256-0.023,0.384L22,6.95v10.46c0,1.428-1.17,2.59-2.608,2.59H4.607z"/>
	<path fill="#55565A" d="M19.282,9.315c-1.567,1.074-3.144,2.148-4.7,3.232c-0.653,0.447-1.759,1.362-2.571,1.362H12h-0.01
		c-0.813,0-1.918-0.915-2.571-1.362c-1.557-1.084-3.134-2.158-4.69-3.232C4.015,8.838,3,7.714,3,6.81C3,5.835,3.532,5,4.607,5
		h14.784C20.266,5,21,5.716,21,6.591C21,7.705,20.167,8.709,19.282,9.315z M21,17.41c0,0.874-0.723,1.59-1.609,1.59H4.607
		C3.723,19,3,18.284,3,17.41V9.514c0.302,0.328,0.643,0.617,1.015,0.865c1.667,1.123,3.355,2.247,4.992,3.43
		c0.843,0.616,1.888,1.372,2.983,1.372H12h0.01c1.095,0,2.139-0.756,2.983-1.372c1.637-1.173,3.325-2.307,5.003-3.43
		c0.362-0.249,0.703-0.537,1.005-0.865V17.41z"/>
</g>
</svg>
